<svg xmlns="http://www.w3.org/2000/svg" viewBox="0 0 800 750" width="100%" style="font-family: -apple-system, BlinkMacSystemFont, 'Segoe UI', Roboto, sans-serif; background: #f8f9fa;">
<rect width="100%" height="100%" fill="#f8f9fa"/>
<text x="400.0" y="35" text-anchor="middle" fill="#212529" font-size="22" font-weight="bold">Coi vs React vs Vue vs Svelte Benchmark</text>
<text x="400.0" y="52" text-anchor="middle" fill="#6c757d" font-size="11">Chrome 143.0.0.0</text>
<rect x="240.0" y="60" width="14" height="14" fill="#9477ff" rx="3"/>
<text x="260.0" y="72" fill="#212529" font-size="13" font-weight="600">Coi</text>
<rect x="325.0" y="60" width="14" height="14" fill="#00d8ff" rx="3"/>
<text x="345.0" y="72" fill="#212529" font-size="13" font-weight="600">React</text>
<rect x="410.0" y="60" width="14" height="14" fill="#42b883" rx="3"/>
<text x="430.0" y="72" fill="#212529" font-size="13" font-weight="600">Vue</text>
<rect x="495.0" y="60" width="14" height="14" fill="#e97d30" rx="3"/>
<text x="515.0" y="72" fill="#212529" font-size="13" font-weight="600">Svelte</text>
<text x="400.0" y="105" text-anchor="middle" fill="#212529" font-size="16" font-weight="bold">Bundle Size</text>
<text x="400.0" y="123" text-anchor="middle" fill="#6c757d" font-size="12">Counter App - Smaller is better (KB)</text>
<text x="168" y="168" text-anchor="end" fill="#212529" font-size="13" font-weight="bold">Coi</text>
<rect x="180" y="150" width="86.8768525077195" height="26" fill="#9477ff" rx="4"/>
<text x="274.8768525077195" y="168" fill="#212529" font-size="13" font-weight="bold">27.4 KB ★</text>
<text x="168" y="204" text-anchor="end" fill="#212529" font-size="13" font-weight="bold">Svelte</text>
<rect x="180" y="186" width="89.48875944735954" height="26" fill="#e97d30" rx="4"/>
<text x="277.48875944735954" y="204" fill="#212529" font-size="13" font-weight="normal">28.2 KB</text>
<text x="168" y="240" text-anchor="end" fill="#212529" font-size="13" font-weight="bold">Vue</text>
<rect x="180" y="222" width="195.09768862053076" height="26" fill="#42b883" rx="4"/>
<text x="383.0976886205308" y="240" fill="#212529" font-size="13" font-weight="normal">61.6 KB</text>
<text x="168" y="276" text-anchor="end" fill="#212529" font-size="13" font-weight="bold">React</text>
<rect x="180" y="258" width="450.0" height="26" fill="#00d8ff" rx="4"/>
<text x="638.0" y="276" fill="#212529" font-size="13" font-weight="normal">142.0 KB</text>
<text x="400.0" y="324" text-anchor="middle" fill="#212529" font-size="16" font-weight="bold">DOM Performance</text>
<text x="400.0" y="342" text-anchor="middle" fill="#6c757d" font-size="12">Rows App - Lower is better (ms)</text>
<text x="168" y="393" text-anchor="end" fill="#212529" font-size="12" font-weight="bold">Create 1,000 rows</text>
<rect x="180" y="369" width="168.7906976744186" height="18" fill="#9477ff" rx="3"/>
<text x="356.7906976744186" y="382" fill="#212529" font-size="11" font-weight="bold">34.4ms ★</text>
<rect x="180" y="391" width="331.00258397932816" height="18" fill="#42b883" rx="3"/>
<text x="519.0025839793282" y="404" fill="#212529" font-size="11" font-weight="normal">67.4ms</text>
<rect x="180" y="413" width="367.0387596899225" height="18" fill="#00d8ff" rx="3"/>
<text x="555.0387596899225" y="426" fill="#212529" font-size="11" font-weight="normal">74.8ms</text>
<rect x="180" y="435" width="380.0" height="18" fill="#e97d30" rx="3"/>
<text x="568.0" y="448" fill="#212529" font-size="11" font-weight="normal">77.4ms</text>
<text x="168" y="484" text-anchor="end" fill="#212529" font-size="12" font-weight="bold">Update 1,000 rows</text>
<rect x="180" y="460" width="48.40826873385012" height="18" fill="#9477ff" rx="3"/>
<text x="236.40826873385012" y="473" fill="#212529" font-size="11" font-weight="bold">9.9ms ★</text>
<rect x="180" y="482" width="207.57622739018086" height="18" fill="#e97d30" rx="3"/>
<text x="395.57622739018086" y="495" fill="#212529" font-size="11" font-weight="normal">42.3ms</text>
<rect x="180" y="504" width="215.28423772609818" height="18" fill="#42b883" rx="3"/>
<text x="403.2842377260982" y="517" fill="#212529" font-size="11" font-weight="normal">43.9ms</text>
<rect x="180" y="526" width="231.33850129198962" height="18" fill="#00d8ff" rx="3"/>
<text x="419.3385012919896" y="539" fill="#212529" font-size="11" font-weight="normal">47.1ms</text>
<text x="168" y="575" text-anchor="end" fill="#212529" font-size="12" font-weight="bold">Swap rows</text>
<rect x="180" y="551" width="0.9819121447028424" height="18" fill="#9477ff" rx="3"/>
<text x="188.98191214470285" y="564" fill="#212529" font-size="11" font-weight="bold">0.2ms ★</text>
<rect x="180" y="573" width="47.72093023255813" height="18" fill="#e97d30" rx="3"/>
<text x="235.72093023255815" y="586" fill="#212529" font-size="11" font-weight="normal">9.7ms</text>
<rect x="180" y="595" width="66.08268733850129" height="18" fill="#42b883" rx="3"/>
<text x="254.08268733850127" y="608" fill="#212529" font-size="11" font-weight="normal">13.5ms</text>
<rect x="180" y="617" width="364.87855297157614" height="18" fill="#00d8ff" rx="3"/>
<text x="552.8785529715761" y="630" fill="#212529" font-size="11" font-weight="normal">74.3ms</text>
<text x="168" y="666" text-anchor="end" fill="#212529" font-size="12" font-weight="bold">Clear rows</text>
<rect x="180" y="642" width="11.782945736434106" height="18" fill="#9477ff" rx="3"/>
<text x="199.7829457364341" y="655" fill="#212529" font-size="11" font-weight="bold">2.4ms ★</text>
<rect x="180" y="664" width="20.62015503875969" height="18" fill="#e97d30" rx="3"/>
<text x="208.6201550387597" y="677" fill="#212529" font-size="11" font-weight="normal">4.2ms</text>
<rect x="180" y="686" width="22.68217054263566" height="18" fill="#00d8ff" rx="3"/>
<text x="210.68217054263567" y="699" fill="#212529" font-size="11" font-weight="normal">4.6ms</text>
<rect x="180" y="708" width="28.84366925064599" height="18" fill="#42b883" rx="3"/>
<text x="216.843669250646" y="721" fill="#212529" font-size="11" font-weight="normal">5.9ms</text>
</svg>