<svg width="157" height="109" viewBox="0 0 157 109" fill="none" xmlns="http://www.w3.org/2000/svg">
<path d="M115.74 96.831C119.368 96.2109 117.302 91.9665 114.887 88.686C112.515 86.0001 107.39 80.9323 104.792 79.6908C99.8894 77.3476 92.2532 77.6907 98.3969 87.1708C100.838 90.9383 107.82 98.1844 115.74 96.831Z" fill="#825FFF"/>
<path d="M137.88 73.4223C137.88 76.4634 142.269 79.2294 143.583 83.2913C144.543 86.2572 143.116 93.9611 144.456 97.1092C147.379 103.975 153.198 105.576 147.477 105.576C126.789 105.576 120.469 81.1663 120.469 71.0615C120.469 60.9568 134.886 41.1704 154.25 43.3764C160.493 44.0876 154.663 44.5957 148.987 51.8437C146.422 55.1189 148.398 61.6019 146.424 64.9336C143.572 69.745 137.88 69.7493 137.88 73.4223Z" fill="#9477FF"/>
<path d="M114.66 52.3013C113.571 61.6605 90.8336 35.3426 81.4113 35.3426C71.9889 35.3426 58.4559 25.7493 58.4559 16.3269C58.4559 6.90458 74.3377 -1.88914 86.0546 0.353599C94.1314 1.89958 85.7342 8.72927 90.2653 16.3269C94.6411 23.6641 109.031 18.4323 107.108 34.4057C106.205 41.9132 116.583 35.7787 114.66 52.3013Z" fill="#9477FF"/>
<path d="M42.2456 101.329C43.6396 103.289 46.2419 101.319 46.2419 101.319C46.2419 101.319 53.4402 96.7657 51.7284 90.0687C50.6222 85.7408 45.5185 77.8514 41.0577 88.2301C39.2938 92.3342 39.6574 97.6877 42.2456 101.329Z" fill="#825FFF"/>
<path d="M0.0383568 80.4681C-0.512667 84.5572 5.05558 85.1373 5.05558 85.1373C5.05558 85.1373 18.8827 87.1811 24.5838 76.787C28.2681 70.0699 32.1214 55.1834 14.3755 62.9583C7.35833 66.0327 1.06147 72.8755 0.0383568 80.4681Z" fill="#9477FF"/>
<path d="M125.346 60.7515C134.876 70.1651 127.844 80.799 114.081 82.266C92.2568 92.3819 79.4241 93.536 59.8486 92.7565C33.8746 92.7565 7.7384 75.4999 7.7384 53.4866C7.7384 31.4733 28.3625 13.6254 51.9546 13.6254C69.5615 13.6254 85.7724 19.144 103.555 37.7405C108.204 43.0865 119.486 55.5659 125.346 60.7515Z" fill="#ECE7FB"/>
<circle cx="53.8855" cy="45.4114" r="11.0471" fill="#464445"/>
<circle cx="51.9598" cy="38.9918" r="3.60274" fill="white"/>
<path d="M129.042 73.1949C129.042 73.1949 127.081 79.717 117.062 81.7224C95.9089 85.9563 101.776 93.0344 66.5597 93.0344C42.4681 93.0344 30.3769 87.0115 20.0007 78.036C19.0556 77.2184 42.5681 76.2482 51.0854 78.4786C69.8118 83.3824 85.6695 82.9362 91.8782 82.9362C79.0619 82.9362 108.078 82.9362 91.8782 82.9362C108.739 82.9362 129.042 73.1949 129.042 73.1949Z" fill="#E2D8FF"/>
<path d="M117.339 85.6706C118.024 90.7536 111.102 91.4746 111.102 91.4746C111.102 91.4746 93.9147 94.0152 86.828 81.0949C82.2482 72.7453 77.4585 54.2408 99.5173 63.9053C108.24 67.7269 116.067 76.2328 117.339 85.6706Z" fill="#9477FF"/>
<path d="M93.1964 104.738C96.8252 104.118 94.4816 96.3941 92.0663 93.1136C89.6944 90.4277 84.8468 88.8395 82.249 87.598C77.3463 85.2548 69.71 85.5979 75.8537 95.078C78.2953 98.8455 85.2772 106.092 93.1964 104.738Z" fill="#8867FF"/>
<ellipse cx="15.3489" cy="43.6735" rx="6.5491" ry="9.97861" transform="rotate(6.33721 15.3489 43.6735)" fill="#464445"/>
<circle cx="16.7447" cy="37.4892" r="2.49675" fill="white"/>
<g filter="url(#filter0_g_19_46)">
<ellipse cx="59.1829" cy="61.0935" rx="6.46098" ry="3.34387" transform="rotate(-15 59.1829 61.0935)" fill="#FFB0AA" fill-opacity="0.26"/>
</g>
<g filter="url(#filter1_g_19_46)">
<ellipse cx="13.0762" cy="57.6723" rx="4.16442" ry="2.02718" transform="rotate(20.5183 13.0762 57.6723)" fill="#FFB0AA" fill-opacity="0.26"/>
</g>
<path d="M26.9958 66.4442L30.6649 68.2888L33.8266 66.382C33.9894 66.2838 34.1769 66.234 34.367 66.2386L37.9927 66.3253L40.1902 62.9088" stroke="#9477FF" stroke-opacity="0.36" stroke-width="2" stroke-linecap="round"/>
<defs>
<filter id="filter0_g_19_46" x="48.6816" y="53.2556" width="21.0026" height="15.6758" filterUnits="userSpaceOnUse" color-interpolation-filters="sRGB">
<feFlood flood-opacity="0" result="BackgroundImageFix"/>
<feBlend mode="normal" in="SourceGraphic" in2="BackgroundImageFix" result="shape"/>
<feTurbulence type="fractalNoise" baseFrequency="0.99900001287460327 0.99900001287460327" numOctaves="3" seed="9950" />
<feDisplacementMap in="shape" scale="8.3999996185302734" xChannelSelector="R" yChannelSelector="G" result="displacedImage" width="100%" height="100%" />
<feMerge result="effect1_texture_19_46">
<feMergeNode in="displacedImage"/>
</feMerge>
</filter>
<filter id="filter1_g_19_46" x="4.91111" y="51.0773" width="16.3302" height="13.1899" filterUnits="userSpaceOnUse" color-interpolation-filters="sRGB">
<feFlood flood-opacity="0" result="BackgroundImageFix"/>
<feBlend mode="normal" in="SourceGraphic" in2="BackgroundImageFix" result="shape"/>
<feTurbulence type="fractalNoise" baseFrequency="0.99900001287460327 0.99900001287460327" numOctaves="3" seed="9950" />
<feDisplacementMap in="shape" scale="8.3999996185302734" xChannelSelector="R" yChannelSelector="G" result="displacedImage" width="100%" height="100%" />
<feMerge result="effect1_texture_19_46">
<feMergeNode in="displacedImage"/>
</feMerge>
</filter>
</defs>
</svg>
